<?xml version="1.0" standalone="yes"?>
<svg xmlns="http://www.w3.org/2000/svg" width="289" height="171">
<path style="fill:#fdfdfc; stroke:none;" d="M0 0L0 171L289 171L289 0L0 0z"/>
<path style="fill:#cdafa8; stroke:none;" d="M83 10L84 11L83 10z"/>
<path style="fill:#2ba65c; stroke:none;" d="M105 53C107.421 51.4674 112.248 49.5418 113.306 46.7014C114.274 44.1057 112.759 40.5335 112.127 38C110.402 31.0878 109.403 15.105 102.786 11.179C99.205 9.054 82.2963 7.85379 82.2963 14.0501C82.2963 19.2932 93.3349 18.118 96.4861 22.1088C102.296 29.467 102.484 44.0507 105 53z"/>
<path style="fill:#cdafa8; stroke:none;" d="M102 10L103 11L102 10M81 12L81 17L82 17L81 12M105 13L106 14L105 13M106 15L107 16L106 15M82 17L83 18L82 17M91.6667 18.3333L92.3333 18.6667L91.6667 18.3333M94 19L95 20L94 19M107 19L108 20L107 19M96 21L97 22L96 21M97 22L98 23L97 22M116 22L116 23L120 23L116 22M108 23L109 24L108 23z"/>
<path style="fill:#843640; stroke:none;" d="M110 23L111 29L112 29C114.011 22.3743 121.273 24 127 24L171 24L151 23L110 23z"/>
<path style="fill:#cdafa8; stroke:none;" d="M171 23L171 24L178 31L179 31C177.882 26.3407 175.726 23.9745 171 23z"/>
<path style="fill:#d31b38; stroke:none;" d="M113.608 25.027C106.724 30.5873 121.602 31.9991 124 32C136.204 32.0047 149.942 30.2142 161.985 32.1481C168.068 33.1252 168.112 38.6537 165.231 42.9992C157.527 54.6196 136.233 50.0167 124 50.1535C118.372 50.2165 109.248 50.3623 107.438 57.0185C101.113 80.2678 131.601 81.2005 146 79.8302C149.802 79.4684 158.639 80.2758 161.377 77.4005C165.968 72.5805 156.863 71.0438 154 71.0039C145.192 70.8809 135.698 72.085 127.001 70.5563C123.37 69.9182 118.767 67.7546 119.908 63.1474C121.083 58.4034 132.223 59.019 136 59.0008C149.397 58.9362 165.171 61.6425 174.008 48.9853C175.681 46.5886 176.858 43.8556 177.481 41C182.723 16.9742 149.91 24 135 24C129.965 24 117.659 21.7547 113.608 25.027z"/>
<path style="fill:#843640; stroke:none;" d="M172.667 24.3333L173.333 24.6667L172.667 24.3333z"/>
<path style="fill:#cdafa8; stroke:none;" d="M98.3333 25.6667L98.6667 26.3333L98.3333 25.6667M110 25L109 28L110 25z"/>
<path style="fill:#843640; stroke:none;" d="M175 25L176 26L175 25z"/>
<path style="fill:#fdfdfc; stroke:none;" d="M110 27L110 30L111 30L110 27z"/>
<path style="fill:#843640; stroke:none;" d="M176 27L177 28L176 27M177.333 28.6667L177.667 29.3333L177.333 28.6667z"/>
<path style="fill:#cdafa8; stroke:none;" d="M111 29L110 32L111 29M99 30L100 31L99 30z"/>
<path style="fill:#843640; stroke:none;" d="M112 30C115.134 34.4357 122.093 33 127 33L166 33L166 32C149.434 32 127.645 35.7018 112 30z"/>
<path style="fill:#fdfdfc; stroke:none;" d="M111 31L115 49C110.909 49.4221 108.083 50.3421 106 54C121.559 44.7728 140.517 54.4892 156.985 49.196C161.245 47.8269 170.078 39.597 165.397 34.767C162.473 31.7504 154.769 33.0002 151 33C140.065 32.9993 120.388 36.8238 111 31z"/>
<path style="fill:#843640; stroke:none;" d="M178 31L178 39L179 39L178 31z"/>
<path style="fill:#cdafa8; stroke:none;" d="M112.667 32.3333L113.333 32.6667L112.667 32.3333M115 33L116 34L115 33M161 33L162 34L161 33M164 33L164 34L167 35L164 33M100 34L101 35L100 34M111 35L112 36L111 35M167 35L166 41L167 41L167 35M179 35L180 36L179 35M101.333 38.6667L101.667 39.3333L101.333 38.6667M112.333 38.6667L112.667 39.3333L112.333 38.6667z"/>
<path style="fill:#843640; stroke:none;" d="M167 39L168 40L167 39z"/>
<path style="fill:#cdafa8; stroke:none;" d="M178 39L176 47L177 47L178 39z"/>
<path style="fill:#843640; stroke:none;" d="M177.333 41.6667L177.667 42.3333L177.333 41.6667z"/>
<path style="fill:#cdafa8; stroke:none;" d="M102.333 42.6667L102.667 43.3333L102.333 42.6667M113.333 42.6667L113.667 43.3333L113.333 42.6667M165 42L162 47L163 47L165 42z"/>
<path style="fill:#843640; stroke:none;" d="M165 43L166 44L165 43M164 44L165 45L164 44M176 44L177 45L176 44z"/>
<path style="fill:#cdafa8; stroke:none;" d="M114 46L113 49L114 46M103 47L104 48L103 47M161 47L162 48L161 47M175 47L173 51L175 47M159 48L156 49L156 50L160 49L159 48z"/>
<path style="fill:#843640; stroke:none;" d="M160 48L161 49L160 48M174 48L175 49L174 48z"/>
<path style="fill:#cdafa8; stroke:none;" d="M109.667 49.3333L110.333 49.6667L109.667 49.3333z"/>
<path style="fill:#843640; stroke:none;" d="M159 49L160 50L159 49M173 49L174 50L173 49z"/>
<path style="fill:#cdafa8; stroke:none;" d="M108 50L109 51L108 50M111 50L111 51L114 51L111 50z"/>
<path style="fill:#843640; stroke:none;" d="M114 50L114 51L119 51L114 50M124.667 50.3333L125.333 50.6667L124.667 50.3333M152 50L153 51L152 50z"/>
<path style="fill:#cdafa8; stroke:none;" d="M104 51L105 52L104 51M109 51L110 52L109 51z"/>
<path style="fill:#843640; stroke:none;" d="M110 51L110 52L113 52L110 51M172 51L170 54L172 51M108 52L107 56L108 56L110 52L108 52z"/>
<path style="fill:#cdafa8; stroke:none;" d="M172 52L173 53L172 52M105 53L106 54L105 53M107 53L108 54L107 53M171 53L172 54L171 53M106 54L106 58L107 58L106 54z"/>
<path style="fill:#843640; stroke:none;" d="M168 54L163 57L163 58L168 54z"/>
<path style="fill:#cdafa8; stroke:none;" d="M168 56L171 54L168 56M167 56L168 57L167 56M165 57L166 58L165 57z"/>
<path style="fill:#843640; stroke:none;" d="M106 58L106 61L107 61L106 58M160.667 58.3333L161.333 58.6667L160.667 58.3333z"/>
<path style="fill:#cdafa8; stroke:none;" d="M162.667 58.3333L163.333 58.6667L162.667 58.3333z"/>
<path style="fill:#843640; stroke:none;" d="M128 59L128 60L157 60L128 59z"/>
<path style="fill:#cdafa8; stroke:none;" d="M157 59L157 60L162 60L157 59M120 60L119 65L120 65L122 60L120 60M123 60L124 61L123 60M106 61C106.521 66.9319 108.717 73.7688 114 77L106 61z"/>
<path style="fill:#843640; stroke:none;" d="M107.333 63.6667L107.667 64.3333L107.333 63.6667z"/>
<path style="fill:#cdafa8; stroke:none;" d="M120 66L125 70L125 69L120 66z"/>
<path style="fill:#843640; stroke:none;" d="M108 67L109 68L108 67M120 67L123 70L120 67M109 69L110 70L109 69z"/>
<path style="fill:#cdafa8; stroke:none;" d="M126 70L126 71L161 71L126 70z"/>
<path style="fill:#843640; stroke:none;" d="M110 71L111 72L110 71M160 71L160 72C166.729 79.3238 152.172 79 148 79L148 80C152.55 80 172.254 77.7786 160 71z"/>
<path style="fill:#cdafa8; stroke:none;" d="M162 71L163 72L162 71M163 72L164 73L163 72z"/>
<path style="fill:#843640; stroke:none;" d="M111 73L112 74L111 73z"/>
<path style="fill:#cdafa8; stroke:none;" d="M164 73L164 76L165 76L164 73z"/>
<path style="fill:#843640; stroke:none;" d="M112 74L113 75L112 74z"/>
<path style="fill:#cdafa8; stroke:none;" d="M114 77L116 79L114 77z"/>
<path style="fill:#843640; stroke:none;" d="M115 77L116 78L115 77z"/>
<path style="fill:#cdafa8; stroke:none;" d="M163.333 77.6667L163.667 78.3333L163.333 77.6667z"/>
<path style="fill:#843640; stroke:none;" d="M116 78L116 79L121 80L121 79L116 78z"/>
<path style="fill:#cdafa8; stroke:none;" d="M117 79L118 80L117 79z"/>
<path style="fill:#843640; stroke:none;" d="M123 79L123 80L128 80L123 79z"/>
<path style="fill:#cdafa8; stroke:none;" d="M161.667 79.3333L162.333 79.6667L161.667 79.3333M131 80L131 81L136 81L131 80M142.667 80.3333L143.333 80.6667L142.667 80.3333M145.667 80.3333L146.333 80.6667L145.667 80.3333M124 81L124 82L127 82L124 81M153.667 81.3333L154.333 81.6667L153.667 81.3333M122 82L123 83L122 82z"/>
<path style="fill:#2ba65c; stroke:none;" d="M123.148 82.7577C116.861 85.3745 121.499 95.9495 127.89 92.777C134.539 89.4771 129.828 79.9774 123.148 82.7577z"/>
<path style="fill:#cdafa8; stroke:none;" d="M128.667 82.3333L129.333 82.6667L128.667 82.3333M150 82L151 83L150 82z"/>
<path style="fill:#2ba65c; stroke:none;" d="M151.228 82.7469C144.947 85.5427 149.469 95.3263 155.891 92.936C163.145 90.2365 158.093 79.6911 151.228 82.7469z"/>
<path style="fill:#cdafa8; stroke:none;" d="M158 83L159 84L158 83M148 84L149 85L148 84M159 85L160 86L159 85M119 86L119 90L120 90L119 86M131 86L132 87L131 86M147.333 87.6667L147.667 88.3333L147.333 87.6667M159 90L160 91L159 90M120 91L121 92L120 91M130 91L131 92L130 91M121 92L122 93L121 92M129 92L130 93L129 92M150 92L151 93L150 92M157 92L158 93L157 92M123 93L124 94L123 93M127 93L128 94L127 93M151 93L152 94L151 93M155.667 93.3333L156.333 93.6667L155.667 93.3333M20 110L21 111L20 110M46 110L46 111L49 111L46 110M50 110L50 111L53 111L50 110M140 111L140 112L164 111C157.893 108.437 146.294 109.14 140 111z"/>
<path style="fill:#2ba65c; stroke:none;" d="M17 111L17 156L25 156L27 128C29.5481 135.486 33.0712 148.84 38.8148 154.397C42.4086 157.874 50.1928 155.746 52.5432 151.786C58.0206 142.559 54 121.599 54 111L46 111L45 148L43 148L28 111L17 111z"/>
<path style="fill:#cdafa8; stroke:none;" d="M54 111L55 112L54 111z"/>
<path style="fill:#843640; stroke:none;" d="M141 111L141 156L150 156L150 150L149 150L149 155C146.365 154.799 143.805 154.622 142.603 151.852C139.528 144.759 139.62 117.269 145 112L141 111z"/>
<path style="fill:#d31b38; stroke:none;" d="M149 155C149.306 151.125 148.784 142.386 152.318 140.028C158.517 135.891 166.769 141.466 172.11 133.892C183.751 117.388 157.079 103.664 144.318 112.179C140.887 114.469 142 120.478 142 124C142 132.631 137.484 154.622 149 155z"/>
<path style="fill:#843640; stroke:none;" d="M159 111L160 112L159 111M161 111L161 112L165 112L161 111z"/>
<path style="fill:#cdafa8; stroke:none;" d="M165 111L165 112L168 112L165 111M209 111L209 112L215 115L209 111z"/>
<path style="fill:#2ba65c; stroke:none;" d="M64.4336 113.047C60.0487 115.854 64.1538 122.762 68.6821 119.953C73.0703 117.231 68.8409 110.226 64.4336 113.047z"/>
<path style="fill:#843640; stroke:none;" d="M167 112L167 113L174 122L175 122C174.032 117.011 171.733 113.922 167 112z"/>
<path style="fill:#cdafa8; stroke:none;" d="M169 112L170 113L169 112M206 112L205 116L206 116L208 112L206 112z"/>
<path style="fill:#843640; stroke:none;" d="M205 117L206 117C212.232 110.34 214.75 121.061 206 118C216.96 129.147 213.292 102.233 205 117z"/>
<path style="fill:#cdafa8; stroke:none;" d="M28 113L29 114L28 113M170.667 113.333L171.333 113.667L170.667 113.333z"/>
<path style="fill:#d31b38; stroke:none;" d="M208.448 114.086C205.07 116.151 208.403 120.848 211.667 118.914C215.074 116.897 211.633 112.138 208.448 114.086z"/>
<path style="fill:#cdafa8; stroke:none;" d="M62 114L63 115L62 114M172 114L174 117L172 114M29 115L30 116L29 115M71.3333 116.667L71.6667 117.333L71.3333 116.667M30 117L31 118L30 117M140 117L140 131L141 131L140 117z"/>
<path style="fill:#843640; stroke:none;" d="M158 117L158 118L162 118L158 117z"/>
<path style="fill:#cdafa8; stroke:none;" d="M205.333 117.667L205.667 118.333L205.333 117.667M150 118C150 123.292 151.806 141.521 161 131C151.003 133.345 150.042 126.223 152 118L150 118z"/>
<path style="fill:#fdfdfc; stroke:none;" d="M152.603 119.028C145.382 124.729 154.943 136.826 163.011 130.32C170.631 124.176 159.044 113.943 152.603 119.028z"/>
<path style="fill:#cdafa8; stroke:none;" d="M160 118L160 119L165 124L166 124C165.185 120.178 163.822 118.815 160 118z"/>
<path style="fill:#843640; stroke:none;" d="M163 118L164 119L163 118z"/>
<path style="fill:#cdafa8; stroke:none;" d="M174 118L175 119L174 118M214.333 118.667L214.667 119.333L214.333 118.667M62 119L63 120L62 119M70 119L71 120L70 119M206 119L213 122L213 121L206 119M31 120L32 121L31 120M63 120L64 121L63 120M69 120L70 121L69 120z"/>
<path style="fill:#843640; stroke:none;" d="M149 120L149 123L150 123L149 120M165 120L166 121L165 120z"/>
<path style="fill:#cdafa8; stroke:none;" d="M175 120C174.999 127.925 174.549 135.067 166 138L166 139C174.548 137.27 178.286 127.832 175 120M213 120L214 121L213 120M65 121L65 122L68 122L65 121M32 122L33 123L32 122z"/>
<path style="fill:#843640; stroke:none;" d="M166 122L167 123L166 122z"/>
<path style="fill:#cdafa8; stroke:none;" d="M195 124L195 125L199 125L195 124M221 134L222 134C224.715 126.184 231.553 125.021 239 125C231.458 121.837 222.624 125.975 221 134M250 132L251 132C254.929 126.724 259.572 125.137 266 125C259.635 122.354 252.807 126.126 250 132M62 125L62 130L63 130L63 126L70 126L62 125M86 125L87 126L86 125z"/>
<path style="fill:#2ba65c; stroke:none;" d="M103 131C98.9183 123.15 84.8693 122.699 79.7423 130.108C70.9904 142.755 86.4792 167.419 100.623 154.265C102.727 152.309 101.551 149.635 98.9367 149.002C95.9569 148.279 93.0852 150.481 90.0586 149.378C84.9693 147.523 84.6404 138.005 87.6034 134.232C91.0756 129.811 98.0704 133.566 103 131z"/>
<path style="fill:#cdafa8; stroke:none;" d="M97 125L98 126L97 125M114 125L115 126L114 125z"/>
<path style="fill:#2ba65c; stroke:none;" d="M132 151C125.538 147.776 117.533 152.78 115 144C119.361 144 124.718 144.842 128.941 143.682C134.815 142.069 133.687 132.823 130.566 129.144C120.699 117.513 107.004 128.136 107 140C106.999 143.202 106.542 146.941 107.742 149.985C111.263 158.912 127.818 158.968 132 151z"/>
<path style="fill:#cdafa8; stroke:none;" d="M124.667 125.333L125.333 125.667L124.667 125.333M165.667 125.333L166.333 125.667L165.667 125.333M181 125L177 130L181 125z"/>
<path style="fill:#843640; stroke:none;" d="M179 132L180 132C181.032 127.621 183.124 127.05 187 129C183.336 124.769 178.914 126.297 179 132z"/>
<path style="fill:#cdafa8; stroke:none;" d="M184 125L185 126L184 125M190 126L190 127L194 126L190 126z"/>
<path style="fill:#843640; stroke:none;" d="M194 125L194 126C198.459 126.341 200.684 127.759 198 132L201 133C202.096 126.751 200.223 125.151 194 125z"/>
<path style="fill:#cdafa8; stroke:none;" d="M200.667 125.333L201.333 125.667L200.667 125.333M205 129L206 129L206 126L214 126C214 133.266 211.508 145.621 217 151C214.33 143.673 217.636 133.9 214.397 127.318C212.155 122.763 206.193 125.406 205 129z"/>
<path style="fill:#843640; stroke:none;" d="M230 125L230 126L240 126L230 125z"/>
<path style="fill:#cdafa8; stroke:none;" d="M240.667 125.333L241.333 125.667L240.667 125.333z"/>
<path style="fill:#843640; stroke:none;" d="M259 125L259 126L268 126L259 125z"/>
<path style="fill:#cdafa8; stroke:none;" d="M268 125L268 126L275 131L276 131L268 125z"/>
<path style="fill:#2ba65c; stroke:none;" d="M63 126C62.1405 133.278 61.8662 142.744 63.2284 149.985C63.8306 153.185 67.1978 157.24 70.6289 154.353C73.1363 152.242 71.4089 148.664 71.1281 146C70.4378 139.45 71 132.585 71 126L63 126z"/>
<path style="fill:#cdafa8; stroke:none;" d="M83 126L84 127L83 126M99 126L100 127L99 126M111 126L112 127L111 126z"/>
<path style="fill:#d31b38; stroke:none;" d="M183.062 127.307C177.223 127.943 179.042 155.4 184.09 155.248C190.478 155.056 187.151 139.255 190.009 135.137C192.407 131.684 198.023 132.894 199.824 129.614C202.305 125.096 185.301 127.063 183.062 127.307z"/>
<path style="fill:#cdafa8; stroke:none;" d="M185 126L186 127L185 126z"/>
<path style="fill:#843640; stroke:none;" d="M192 126L193 127L192 126z"/>
<path style="fill:#cdafa8; stroke:none;" d="M202 126L202 129L203 129L202 126z"/>
<path style="fill:#843640; stroke:none;" d="M206 126L206 132L207 132L209 127L206 126z"/>
<path style="fill:#d31b38; stroke:none;" d="M209.27 126.801C203.725 129.142 205.712 144.514 206.904 148.981C207.574 151.495 209.348 155.39 212.686 153.632C216.421 151.665 215.333 124.241 209.27 126.801z"/>
<path style="fill:#843640; stroke:none;" d="M213.333 126.667L213.667 127.333L213.333 126.667M226 128L229 127L226 128z"/>
<path style="fill:#d31b38; stroke:none;" d="M245 153C241.232 146.234 231.946 153.87 229.434 144.985C228.236 140.75 228.648 134.272 233.059 132.067C235.077 131.058 243.803 133.134 243.079 129.08C241.963 122.835 227.497 126.372 224.804 129.394C212.22 143.515 228.963 161.983 245 153z"/>
<path style="fill:#843640; stroke:none;" d="M241 126L241 127C243.34 129.779 242.266 130.986 239 132L239 133L246 131L241 126z"/>
<path style="fill:#cdafa8; stroke:none;" d="M243 126L244 127L243 126z"/>
<path style="fill:#843640; stroke:none;" d="M256 126C252.043 129.19 250.28 131.887 250 137L251 137L257 127L256 126z"/>
<path style="fill:#d31b38; stroke:none;" d="M274 151C267.404 149.054 260.794 151.968 258 144C261.937 143.998 266.278 144.374 270.165 143.691C275.822 142.698 277.572 135.981 274.821 131.301C270.577 124.08 256.375 123.766 252.164 131.094C248.912 136.753 248.974 147.673 253.572 152.606C258.714 158.122 270.22 157.313 274 151z"/>
<path style="fill:#843640; stroke:none;" d="M269.667 126.333L270.333 126.667L269.667 126.333z"/>
<path style="fill:#cdafa8; stroke:none;" d="M34 127L35 128L34 127M101 127L102 128L101 127M110 127L111 128L110 127M129 127L130 128L129 127z"/>
<path style="fill:#843640; stroke:none;" d="M149 127L150 128L149 127M174 127L174 131L175 131L174 127z"/>
<path style="fill:#cdafa8; stroke:none;" d="M186 127L189 130L186 127z"/>
<path style="fill:#843640; stroke:none;" d="M190 127L191 128L190 127z"/>
<path style="fill:#cdafa8; stroke:none;" d="M244 127L245 128L244 127z"/>
<path style="fill:#843640; stroke:none;" d="M271 127L272 128L271 127z"/>
<path style="fill:#cdafa8; stroke:none;" d="M102 128L103 129L102 128M130 128L131 129L130 128M165 128L162 132L165 128z"/>
<path style="fill:#843640; stroke:none;" d="M189 128L190 129L189 128M224 128L223 131L224 128z"/>
<path style="fill:#cdafa8; stroke:none;" d="M245 128L246 129L245 128z"/>
<path style="fill:#843640; stroke:none;" d="M272 128L275 130L272 128z"/>
<path style="fill:#cdafa8; stroke:none;" d="M27 129L28 130L27 129M35 129L36 130L35 129M103 129L104 130L103 129M131 129L132 130L131 129z"/>
<path style="fill:#843640; stroke:none;" d="M165 129L166 130L165 129z"/>
<path style="fill:#cdafa8; stroke:none;" d="M246.333 129.667L246.667 130.333L246.333 129.667M107 130L108 131L107 130M201.333 130.667L201.667 131.333L201.333 130.667z"/>
<path style="fill:#843640; stroke:none;" d="M263 130L264 131L263 130z"/>
<path style="fill:#cdafa8; stroke:none;" d="M25 131L25 156L26 156L25 131M36 131L37 132L36 131M90 131L91 132L90 131M93 131L94 132L93 131M101 131L102 132L101 131z"/>
<path style="fill:#fdfdfc; stroke:none;" d="M115 138L125 138C123.76 130.161 115.922 129.918 115 138z"/>
<path style="fill:#cdafa8; stroke:none;" d="M121 131L122 132L121 131M132 131L133 132L132 131M178 131L179 132L178 131z"/>
<path style="fill:#843640; stroke:none;" d="M194.667 131.333L195.333 131.667L194.667 131.333z"/>
<path style="fill:#cdafa8; stroke:none;" d="M205 131L205 148L206 148L205 131z"/>
<path style="fill:#843640; stroke:none;" d="M222.333 131.667L222.667 132.333L222.333 131.667M232 131L233 132L232 131z"/>
<path style="fill:#cdafa8; stroke:none;" d="M233 131L233 132L237 132L233 131z"/>
<path style="fill:#843640; stroke:none;" d="M237 131L238 132L237 131z"/>
<path style="fill:#cdafa8; stroke:none;" d="M245 131L246 132L245 131z"/>
<path style="fill:#843640; stroke:none;" d="M260 131L261 132L260 131z"/>
<path style="fill:#cdafa8; stroke:none;" d="M269 135L268 135C261.406 141.701 257.603 130.545 268 134C255.439 121.222 260.164 151.024 269 135z"/>
<path style="fill:#843640; stroke:none;" d="M275 131L276 132L275 131z"/>
<path style="fill:#cdafa8; stroke:none;" d="M100 132L101 133L100 132M123 132L124 133L123 132z"/>
<path style="fill:#843640; stroke:none;" d="M173 132L174 133L173 132z"/>
<path style="fill:#cdafa8; stroke:none;" d="M179.333 132.667L179.667 133.333L179.333 132.667z"/>
<path style="fill:#843640; stroke:none;" d="M191 132L190 134L191 132z"/>
<path style="fill:#cdafa8; stroke:none;" d="M192.667 132.333L193.333 132.667L192.667 132.333M196 132L196 133L199 133L196 132M231.667 132.333L232.333 132.667L231.667 132.333M238 132L239 133L238 132M242 134L245 132L242 134z"/>
<path style="fill:#fdfdfc; stroke:none;" d="M261.336 133.067C256.991 135.669 263.315 139.562 266.338 136.987C269.385 134.392 263.762 131.615 261.336 133.067z"/>
<path style="fill:#cdafa8; stroke:none;" d="M276.333 132.667L276.667 133.333L276.333 132.667M37 133L38 134L37 133M62 133L62 150L63 150L62 133M99 133L100 134L99 133M115 133L116 134L115 133M124 133L125 134L124 133z"/>
<path style="fill:#843640; stroke:none;" d="M172.333 133.667L172.667 134.333L172.333 133.667z"/>
<path style="fill:#cdafa8; stroke:none;" d="M191 133L192 134L191 133M199.667 133.333L200.333 133.667L199.667 133.333M230 133L231 134L230 133M239 133L240 134L239 133M29 134L30 135L29 134M86 134L87 135L86 134M106 134L106 148L107 148L106 134M190 134L188 156L189 156L190 134z"/>
<path style="fill:#843640; stroke:none;" d="M221 134L221 148L222 148L221 134M229 134L230 135L229 134z"/>
<path style="fill:#cdafa8; stroke:none;" d="M241 134L242 135L241 134M249 134L249 145L250 145L249 134z"/>
<path style="fill:#843640; stroke:none;" d="M276 134L276 140L277 140L276 134z"/>
<path style="fill:#cdafa8; stroke:none;" d="M133 135L133 140L134 140L133 135z"/>
<path style="fill:#843640; stroke:none;" d="M171 135L172 136L171 135z"/>
<path style="fill:#cdafa8; stroke:none;" d="M229 135L229 147L230 147L229 135M30 136L31 137L30 136M38 136L39 137L38 136z"/>
<path style="fill:#843640; stroke:none;" d="M170 136L171 137L170 136z"/>
<path style="fill:#cdafa8; stroke:none;" d="M220 136L220 146L221 146L220 136M77.3333 137.667L77.6667 138.333L77.3333 137.667M140 137L140 141L141 141L140 137z"/>
<path style="fill:#843640; stroke:none;" d="M168 137L169 138L168 137M188 137L189 138L188 137z"/>
<path style="fill:#cdafa8; stroke:none;" d="M39 138L40 139L39 138M115 138L115 139L124 139L115 138z"/>
<path style="fill:#843640; stroke:none;" d="M165 138L166 139L165 138M180.333 138.667L180.667 139.333L180.333 138.667z"/>
<path style="fill:#cdafa8; stroke:none;" d="M150 154L151 154C151 141.982 152.982 140 165 140C151.805 134.463 150 143.454 150 154M40 140L41 141L40 140M276.333 140.667L276.667 141.333L276.333 140.667M32 141L33 142L32 141M77 141L78 142L77 141z"/>
<path style="fill:#843640; stroke:none;" d="M275 141L272 143L272 144L275 141z"/>
<path style="fill:#cdafa8; stroke:none;" d="M132 142L133 143L132 142M33 143L34 144L33 143M41 143L42 144L41 143z"/>
<path style="fill:#843640; stroke:none;" d="M267 143L268 144L267 143z"/>
<path style="fill:#cdafa8; stroke:none;" d="M274.667 143.333L275.333 143.667L274.667 143.333z"/>
<path style="fill:#843640; stroke:none;" d="M180.333 144.667L180.667 145.333L180.333 144.667z"/>
<path style="fill:#cdafa8; stroke:none;" d="M258 144L259 149L260 149L260 145L272 145L258 144M42 145L43 146L42 145z"/>
<path style="fill:#843640; stroke:none;" d="M250 145L250 149L251 149L250 145z"/>
<path style="fill:#cdafa8; stroke:none;" d="M45 146L46 147L45 146M86.3333 146.667L86.6667 147.333L86.3333 146.667M43 147L44 148L43 147M97.6667 147.333L98.3333 147.667L97.6667 147.333z"/>
<path style="fill:#843640; stroke:none;" d="M206 147L206 150L207 150L206 147z"/>
<path style="fill:#cdafa8; stroke:none;" d="M230.333 147.667L230.667 148.333L230.333 147.667M237 149L237 150C241.369 148.964 246.519 150.424 242 155C248.344 155.917 245.213 145.314 237 149M35 148L36 149L35 148M96 148L97 149L96 148M99 148L100 149L99 148M126 148L127 149L126 148M128 148L129 149L128 148z"/>
<path style="fill:#843640; stroke:none;" d="M180 148L182 156L180 148z"/>
<path style="fill:#cdafa8; stroke:none;" d="M221 148L228 156L228 155L221 148z"/>
<path style="fill:#843640; stroke:none;" d="M240 148L240 149L243 149L240 148z"/>
<path style="fill:#cdafa8; stroke:none;" d="M269 148L267 149L267 150L269 148z"/>
<path style="fill:#843640; stroke:none;" d="M269 149L269 150L274 151L272 155C275.085 151.643 273.352 148.932 269 149z"/>
<path style="fill:#cdafa8; stroke:none;" d="M272 148L273 149L272 148M71 149L72 150L71 149M78 149L79 150L78 149M88 149L89 150L88 149M95 149L96 150L95 149M129 149L130 150L129 149z"/>
<path style="fill:#843640; stroke:none;" d="M214 149L215 150L214 149M222.333 149.667L222.667 150.333L222.333 149.667z"/>
<path style="fill:#cdafa8; stroke:none;" d="M231.667 149.333L232.333 149.667L231.667 149.333z"/>
<path style="fill:#843640; stroke:none;" d="M239 149L240 150L239 149M243 149L244 150L243 149z"/>
<path style="fill:#cdafa8; stroke:none;" d="M250 149L252 152L250 149M260.667 149.333L261.333 149.667L260.667 149.333M263 149L263 151L265 151L263 149M273 149L274 150L273 149M36 150L37 151L36 150M53 150L54 151L53 150M72 150L73 151L72 150M107 150L108 151L107 150M119.667 150.333L120.333 150.667L119.667 150.333M130 150L131 151L130 150M140.333 150.667L140.667 151.333L140.333 150.667M206 150L207 154L208 154L206 150z"/>
<path style="fill:#843640; stroke:none;" d="M215 150L209 154L209 155C212.541 155.503 216.498 154.1 215 150M233 150L233 151L236 151L233 150M244 150L245 151L244 150M251 150L252 151L251 150z"/>
<path style="fill:#cdafa8; stroke:none;" d="M274 150L275 151L274 150M73.3333 151.667L73.6667 152.333L73.3333 151.667M79 151L80 152L79 151z"/>
<path style="fill:#843640; stroke:none;" d="M207.333 151.667L207.667 152.333L207.333 151.667M223 151L224 152L223 151M245.333 151.667L245.667 152.333L245.333 151.667M252 151L258 156L258 155L252 151z"/>
<path style="fill:#cdafa8; stroke:none;" d="M275.333 151.667L275.667 152.333L275.333 151.667M37 152L38 153L37 152M52 152L53 153L52 152M63 152L64 153L63 152M108 152L109 153L108 152M216 152L217 153L216 152z"/>
<path style="fill:#843640; stroke:none;" d="M224 152L225 153L224 152z"/>
<path style="fill:#cdafa8; stroke:none;" d="M109 153L110 154L109 153M215 153L216 154L215 153z"/>
<path style="fill:#843640; stroke:none;" d="M225 153L226 154L225 153M244 153L245 154L244 153z"/>
<path style="fill:#cdafa8; stroke:none;" d="M251.667 153.333L252.333 153.667L251.667 153.333M274 153L275 154L274 153M50 154L51 155L50 154M82 154L83 155L82 154M110 154L111 155L110 154z"/>
<path style="fill:#843640; stroke:none;" d="M187 154L185 155L185 156L187 154z"/>
<path style="fill:#cdafa8; stroke:none;" d="M208 154L208 156L210 156L208 154M214 154L213 156L215 156L214 154z"/>
<path style="fill:#843640; stroke:none;" d="M226 154L227 155L226 154M242.667 154.333L243.333 154.667L242.667 154.333z"/>
<path style="fill:#cdafa8; stroke:none;" d="M253 154L254 155L253 154M273 154L274 155L273 154M48 155L49 156L48 155M66 155L67 156L66 155M84 155L85 156L84 155M112 155L113 156L112 155M150 155L151 156L150 155z"/>
<path style="fill:#843640; stroke:none;" d="M228 155L229 156L228 155M240.667 155.333L241.333 155.667L240.667 155.333z"/>
<path style="fill:#cdafa8; stroke:none;" d="M254.667 155.333L255.333 155.667L254.667 155.333z"/>
<path style="fill:#843640; stroke:none;" d="M269.667 155.333L270.333 155.667L269.667 155.333z"/>
<path style="fill:#cdafa8; stroke:none;" d="M271.667 155.333L272.333 155.667L271.667 155.333M67.6667 156.333L68.3333 156.667L67.6667 156.333M87 156L87 157L90 157L87 156M94.6667 156.333L95.3333 156.667L94.6667 156.333M115 156L115 157L118 157L115 156M122 156L122 157L125 157L122 156M210.667 156.333L211.333 156.667L210.667 156.333M229 156L229 157L233 157L229 156z"/>
<path style="fill:#843640; stroke:none;" d="M233 156L233 157L237 157L233 156z"/>
<path style="fill:#cdafa8; stroke:none;" d="M237 156L237 157L241 157L237 156M257 156L257 157L261 157L257 156z"/>
<path style="fill:#843640; stroke:none;" d="M261 156L261 157L266 157L261 156z"/>
<path style="fill:#cdafa8; stroke:none;" d="M266 156L266 157L270 157L266 156z"/>
</svg>
